<?xml version="1.0" encoding="UTF-8" standalone="no"?>
<!-- Created with Inkscape (http://www.inkscape.org/) -->

<svg
   width="55mm"
   height="55mm"
   viewBox="0 0 55 55"
   version="1.1"
   id="svg1"
   xml:space="preserve"
   inkscape:version="1.3.2 (091e20e, 2023-11-25, custom)"
   sodipodi:docname="edit.svg"
   xmlns:inkscape="http://www.inkscape.org/namespaces/inkscape"
   xmlns:sodipodi="http://sodipodi.sourceforge.net/DTD/sodipodi-0.dtd"
   xmlns="http://www.w3.org/2000/svg"
   xmlns:svg="http://www.w3.org/2000/svg"><sodipodi:namedview
     id="namedview1"
     pagecolor="#ffffff"
     bordercolor="#000000"
     borderopacity="0.25"
     inkscape:showpageshadow="2"
     inkscape:pageopacity="0.0"
     inkscape:pagecheckerboard="0"
     inkscape:deskcolor="#d1d1d1"
     inkscape:document-units="mm"
     inkscape:zoom="1.0242632"
     inkscape:cx="266.53305"
     inkscape:cy="371.48654"
     inkscape:window-width="1920"
     inkscape:window-height="1009"
     inkscape:window-x="-8"
     inkscape:window-y="-8"
     inkscape:window-maximized="1"
     inkscape:current-layer="layer1" /><defs
     id="defs1" /><g
     inkscape:label="Layer 1"
     inkscape:groupmode="layer"
     id="layer1"><g
       style="fill:#ffffff;fill-opacity:1"
       id="g1"
       transform="matrix(0.10102316,0,0,0.10516801,3.2740076,0.99080041)"><g
         id="g3"
         style="fill:#ffffff;fill-opacity:1">
	<g
   id="g2"
   style="fill:#ffffff;fill-opacity:1">
		<path
   d="m 389.844,182.85 c -6.743,0 -12.21,5.467 -12.21,12.21 v 222.968 c 0,23.562 -19.174,42.735 -42.736,42.735 H 67.157 c -23.562,0 -42.736,-19.174 -42.736,-42.735 V 150.285 c 0,-23.562 19.174,-42.735 42.736,-42.735 h 267.741 c 6.743,0 12.21,-5.467 12.21,-12.21 0,-6.743 -5.467,-12.21 -12.21,-12.21 H 67.157 C 30.126,83.13 0,113.255 0,150.285 v 267.743 c 0,37.029 30.126,67.155 67.157,67.155 h 267.741 c 37.03,0 67.156,-30.126 67.156,-67.155 V 195.061 c 0,-6.743 -5.467,-12.211 -12.21,-12.211 z"
   id="path1"
   style="fill:#ffffff;fill-opacity:1" />
		<path
   d="m 483.876,20.791 c -14.72,-14.72 -38.669,-14.714 -53.377,0 L 221.352,229.944 c -0.28,0.28 -3.434,3.559 -4.251,5.396 l -28.963,65.069 c -2.057,4.619 -1.056,10.027 2.521,13.6 2.337,2.336 5.461,3.576 8.639,3.576 1.675,0 3.362,-0.346 4.96,-1.057 l 65.07,-28.963 c 1.83,-0.815 5.114,-3.97 5.396,-4.25 L 483.876,74.169 c 7.131,-7.131 11.06,-16.61 11.06,-26.692 0,-10.081 -3.929,-19.562 -11.06,-26.686 z M 466.61,56.897 257.457,266.05 c -0.035,0.036 -0.055,0.078 -0.089,0.107 L 223.379,281.288 238.51,247.3 c 0.03,-0.036 0.071,-0.055 0.107,-0.09 L 447.765,38.058 c 5.038,-5.039 13.819,-5.033 18.846,0.005 2.518,2.51 3.905,5.855 3.905,9.414 0,3.559 -1.389,6.903 -3.906,9.42 z"
   id="path2"
   style="fill:#ffffff;fill-opacity:1" />
	</g>
</g></g></g></svg>
