<?xml version="1.0" encoding="UTF-8" standalone="no"?>
<!-- Created with Inkscape (http://www.inkscape.org/) -->

<svg
   width="55mm"
   height="55mm"
   viewBox="0 0 55 55"
   version="1.1"
   id="svg1"
   xml:space="preserve"
   inkscape:version="1.3.2 (091e20e, 2023-11-25, custom)"
   sodipodi:docname="fullscreen.svg"
   xmlns:inkscape="http://www.inkscape.org/namespaces/inkscape"
   xmlns:sodipodi="http://sodipodi.sourceforge.net/DTD/sodipodi-0.dtd"
   xmlns="http://www.w3.org/2000/svg"
   xmlns:svg="http://www.w3.org/2000/svg"><sodipodi:namedview
     id="namedview1"
     pagecolor="#ffffff"
     bordercolor="#000000"
     borderopacity="0.25"
     inkscape:showpageshadow="2"
     inkscape:pageopacity="0.0"
     inkscape:pagecheckerboard="0"
     inkscape:deskcolor="#d1d1d1"
     inkscape:document-units="mm"
     inkscape:zoom="1.0242632"
     inkscape:cx="37.587994"
     inkscape:cy="168.41374"
     inkscape:window-width="1920"
     inkscape:window-height="1009"
     inkscape:window-x="-8"
     inkscape:window-y="-8"
     inkscape:window-maximized="1"
     inkscape:current-layer="layer1" /><defs
     id="defs1" /><g
     inkscape:label="Layer 1"
     inkscape:groupmode="layer"
     id="layer1"><g
       id="svgg"
       transform="scale(0.26458333)"><path
         id="path0"
         d=""
         stroke="none"
         fill="#fcfcfc"
         fill-rule="evenodd" /><path
         id="path1"
         d=""
         stroke="none"
         fill="#100fcfc"
         fill-rule="evenodd" /><path
         id="path2"
         d=""
         stroke="none"
         fill="#100fcfc"
         fill-rule="evenodd" /><path
         id="path3"
         d=""
         stroke="none"
         fill="#100fcfc"
         fill-rule="evenodd" /><path
         id="path4"
         d=""
         stroke="none"
         fill="#100fcfc"
         fill-rule="evenodd" /></g><g
       style="fill:#ffffff;fill-opacity:1"
       id="g1"
       transform="matrix(0.12988025,0,0,0.12988059,2.8914163,1.9170341)"><g
         id="g10"
         style="fill:#ffffff;fill-opacity:1">
	<g
   id="Fullscreen"
   style="fill:#ffffff;fill-opacity:1">
		<path
   d="M 384.97,12.03 C 384.97,5.317 379.653,0 372.94,0 H 264.847 c -6.833,0 -11.922,5.39 -11.934,12.223 0,6.821 5.101,11.838 11.934,11.838 h 96.062 l -0.193,96.519 c 0,6.833 5.197,12.03 12.03,12.03 6.833,-0.012 12.03,-5.197 12.03,-12.03 l 0.193,-108.369 c 0,-0.036 -0.012,-0.06 -0.012,-0.084 0.001,-0.037 0.013,-0.061 0.013,-0.097 z"
   id="path1-1"
   style="fill:#ffffff;fill-opacity:1" />
		<path
   d="M 120.496,0 H 12.403 C 12.367,0 12.343,0.012 12.307,0.012 12.283,0.012 12.247,0 12.223,0 5.51,0 0.192,5.317 0.192,12.03 L 0,120.399 c 0,6.833 5.39,11.934 12.223,11.934 6.821,0 11.838,-5.101 11.838,-11.934 L 24.253,24.06 h 96.242 c 6.833,0 12.03,-5.197 12.03,-12.03 C 132.514,5.197 127.317,0 120.496,0 Z"
   id="path2-0"
   style="fill:#ffffff;fill-opacity:1" />
		<path
   d="M 120.123,360.909 H 24.061 v -96.242 c 0,-6.833 -5.197,-12.03 -12.03,-12.03 C 5.198,252.637 0,257.833 0,264.667 v 108.092 c 0,0.036 0.012,0.06 0.012,0.084 0,0.036 -0.012,0.06 -0.012,0.096 0,6.713 5.317,12.03 12.03,12.03 h 108.092 c 6.833,0 11.922,-5.39 11.934,-12.223 10e-4,-6.82 -5.1,-11.837 -11.933,-11.837 z"
   id="path3-3"
   style="fill:#ffffff;fill-opacity:1" />
		<path
   d="m 372.747,252.913 c -6.833,0 -11.85,5.101 -11.838,11.934 v 96.062 h -96.242 c -6.833,0 -12.03,5.197 -12.03,12.03 0,6.833 5.197,12.03 12.03,12.03 h 108.092 c 0.036,0 0.06,-0.012 0.084,-0.012 0.036,-0.012 0.06,0.012 0.096,0.012 6.713,0 12.03,-5.317 12.03,-12.03 V 264.847 c 0.001,-6.833 -5.389,-11.934 -12.222,-11.934 z"
   id="path4-0"
   style="fill:#ffffff;fill-opacity:1" />
	</g>
	<g
   id="g4"
   style="fill:#ffffff;fill-opacity:1">
	</g>
	<g
   id="g5"
   style="fill:#ffffff;fill-opacity:1">
	</g>
	<g
   id="g6"
   style="fill:#ffffff;fill-opacity:1">
	</g>
	<g
   id="g7"
   style="fill:#ffffff;fill-opacity:1">
	</g>
	<g
   id="g8"
   style="fill:#ffffff;fill-opacity:1">
	</g>
	<g
   id="g9"
   style="fill:#ffffff;fill-opacity:1">
	</g>
</g></g></g></svg>
