<?xml version="1.0" encoding="UTF-8" standalone="no"?>
<!-- Created with Inkscape (http://www.inkscape.org/) -->

<svg
   width="55mm"
   height="55mm"
   viewBox="0 0 55 55"
   version="1.1"
   id="svg1"
   xml:space="preserve"
   inkscape:version="1.3.2 (091e20e, 2023-11-25, custom)"
   sodipodi:docname="mute_white.svg"
   xmlns:inkscape="http://www.inkscape.org/namespaces/inkscape"
   xmlns:sodipodi="http://sodipodi.sourceforge.net/DTD/sodipodi-0.dtd"
   xmlns="http://www.w3.org/2000/svg"
   xmlns:svg="http://www.w3.org/2000/svg"><sodipodi:namedview
     id="namedview1"
     pagecolor="#ffffff"
     bordercolor="#000000"
     borderopacity="0.25"
     inkscape:showpageshadow="2"
     inkscape:pageopacity="0.0"
     inkscape:pagecheckerboard="0"
     inkscape:deskcolor="#d1d1d1"
     inkscape:document-units="mm"
     inkscape:zoom="1.4200196"
     inkscape:cx="179.57498"
     inkscape:cy="233.44748"
     inkscape:window-width="1920"
     inkscape:window-height="1009"
     inkscape:window-x="1912"
     inkscape:window-y="-3"
     inkscape:window-maximized="1"
     inkscape:current-layer="layer1" /><defs
     id="defs1" /><g
     inkscape:label="Layer 1"
     inkscape:groupmode="layer"
     id="layer1"><g
       style="fill:#fcfcfc;fill-opacity:1"
       id="g1"
       transform="matrix(3.6764706,0,0,3.6764706,-0.10030112,-3.9830972)"><path
         clip-rule="evenodd"
         d="m 2,7.5 v 3 C 2,11.3 2.6,12 3.4,12 h 2.3 l 3.2,2.8 C 9,14.9 9.2,15 9.3,15 9.4,15 9.5,15 9.6,14.9 9.8,14.8 10,14.5 10,14.2 V 13.3 L 2.8,6.1 C 2.3,6.3 2,6.9 2,7.5 Z m 8,2 V 3.7 C 10,3.4 9.9,3.2 9.6,3 9.5,3 9.4,3 9.3,3 9.2,3 9,3 8.9,3.2 L 6.1,5.7 2,1.6 1,2.6 4.4,6 l 5.6,5.6 3.6,3.6 1,-1 z"
         fill-rule="evenodd"
         id="path1"
         style="fill:#fcfcfc;fill-opacity:1" /></g></g></svg>
